<?xml version="1.0" encoding="utf-8"?>
<!-- Generator: Adobe Illustrator 15.1.0, SVG Export Plug-In  -->
<!DOCTYPE svg PUBLIC "-//W3C//DTD SVG 1.1//EN" "http://www.w3.org/Graphics/SVG/1.1/DTD/svg11.dtd" [
	<!ENTITY ns_flows "http://ns.adobe.com/Flows/1.0/">
]>
<svg version="1.1"
	 xmlns="http://www.w3.org/2000/svg" xmlns:xlink="http://www.w3.org/1999/xlink" xmlns:a="http://ns.adobe.com/AdobeSVGViewerExtensions/3.0/"
	 x="0px" y="0px" width="250px" height="154px" viewBox="0 0 250 154" overflow="visible" enable-background="new 0 0 250 154"
	 xml:space="preserve">
<defs>
</defs>
<polygon fill="#EEEEEE" points="244.944,153.98 148.014,33.482 57.734,153.967 56.464,154 147.986,31.853 246.248,154 "/>
<path fill="#EEEEEE" d="M64.833,107.5c-2.941,0-5.333-2.393-5.333-5.333s2.393-5.333,5.333-5.333s5.333,2.393,5.333,5.333
	S67.774,107.5,64.833,107.5z M64.833,97.834c-2.39,0-4.333,1.943-4.333,4.333s1.944,4.333,4.333,4.333s4.333-1.943,4.333-4.333
	S67.223,97.834,64.833,97.834z"/>
<rect x="46.5" fill="#EEEEEE" width="1" height="154"/>
<path fill="#EEEEEE" d="M148,116.501c-48.432,0-87.834-25.121-87.834-56c0-30.878,39.402-56,87.834-56s87.834,25.122,87.834,56
	C235.834,91.38,196.432,116.501,148,116.501z M148,5.501c-47.88,0-86.834,24.673-86.834,55s38.954,55,86.834,55
	c47.881,0,86.834-24.673,86.834-55S195.881,5.501,148,5.501z"/>
<rect y="101.501" opacity="0" fill="#EEEEEE" width="250" height="1"/>
</svg>
