<?xml version="1.0" encoding="utf-8"?>
<!-- Generator: Adobe Illustrator 15.1.0, SVG Export Plug-In  -->
<!DOCTYPE svg PUBLIC "-//W3C//DTD SVG 1.1//EN" "http://www.w3.org/Graphics/SVG/1.1/DTD/svg11.dtd" [
	<!ENTITY ns_flows "http://ns.adobe.com/Flows/1.0/">
]>
<svg version="1.1"
	 xmlns="http://www.w3.org/2000/svg" xmlns:xlink="http://www.w3.org/1999/xlink" xmlns:a="http://ns.adobe.com/AdobeSVGViewerExtensions/3.0/"
	 x="0px" y="0px" width="250px" height="154px" viewBox="0 0 250 154" overflow="visible" enable-background="new 0 0 250 154"
	 xml:space="preserve">
<defs>
</defs>
<path fill="#EFEFEF" d="M95.5,154l0.447-0.227C83.982,129.813,78.166,104.7,78.166,77c0.001-28.546,5.65-52.94,17.779-76.771L95.5,0
	h-0.558C82.819,23.905,77.167,48.379,77.166,77c0,27.775,5.818,52.964,17.778,77H95.5z"/>
<polygon fill="#EFEFEF" points="250,76.48 96.627,0 95.5,0 95.278,0.451 249.778,77.493 250,77.042 "/>
<polygon fill="#EFEFEF" points="250,76.937 249.778,76.486 95.217,153.549 95.439,154 96.566,154 250,77.499 "/>
<rect x="0" y="76.465" fill="#EFEFEF" width="250" height="1.007"/>
<rect x="95" fill="#EFEFEF" width="1" height="154"/>
<rect x="47" fill="#EFEFEF" width="1" height="154"/>
</svg>
