<?xml version="1.0" encoding="utf-8"?>
<!-- Generator: Adobe Illustrator 21.0.0, SVG Export Plug-In . SVG Version: 6.00 Build 0)  -->
<svg version="1.1" id="Layer_1" xmlns="http://www.w3.org/2000/svg" xmlns:xlink="http://www.w3.org/1999/xlink" x="0px" y="0px"
	 viewBox="0 0 500 308" style="enable-background:new 0 0 500 308;" xml:space="preserve">
<style type="text/css">
	.st0{fill:#EEEEEE;}
	.st1{fill:none;}
	.st2{fill:none;stroke:#EEEEEE;stroke-miterlimit:10;}
</style>
<rect x="249.5" y="-184.6" transform="matrix(0.2944 -0.9557 0.9557 0.2944 102.8181 293.2533)" class="st0" width="1" height="523.2"/>
<rect x="-11.6" y="230.5" transform="matrix(0.9558 -0.2942 0.2942 0.9558 -56.8894 83.7571)" class="st0" width="523.2" height="1"/>
<line class="st1" x1="0" y1="0" x2="0" y2="308"/>
<path class="st0" d="M397.8,172.1c-10,0-18.1-8.1-18.1-18.1s8.1-18.1,18.1-18.1c10,0,18.1,8.1,18.1,18.1S407.7,172.1,397.8,172.1z
	 M397.8,136.9c-9.4,0-17.1,7.7-17.1,17.1c0,9.4,7.7,17.1,17.1,17.1s17.1-7.7,17.1-17.1C414.9,144.6,407.2,136.9,397.8,136.9z"/>
<path class="st0" d="M198.4,247.2c-51.4,0-93.2-41.8-93.2-93.2c0-51.4,41.8-93.2,93.2-93.2v1c-50.9,0-92.2,41.4-92.2,92.2
	c0,50.9,41.4,92.2,92.2,92.2V247.2z"/>
<path class="st2" d="M290.5,154"/>
</svg>
