<?xml version="1.0" encoding="utf-8"?>
<!-- Generator: Adobe Illustrator 15.1.0, SVG Export Plug-In . SVG Version: 6.00 Build 0)  -->
<!DOCTYPE svg PUBLIC "-//W3C//DTD SVG 1.1//EN" "http://www.w3.org/Graphics/SVG/1.1/DTD/svg11.dtd">
<svg version="1.1" id="Layer_1" xmlns="http://www.w3.org/2000/svg" xmlns:xlink="http://www.w3.org/1999/xlink" x="0px" y="0px"
	 width="250px" height="154px" viewBox="0 0 250 154" enable-background="new 0 0 250 154" xml:space="preserve">
<path fill="#F2F2F2" d="M136.167,79.334c-3.217,0-5.833-2.617-5.833-5.833c0-3.217,2.616-5.834,5.833-5.834s5.834,2.617,5.834,5.834
	C142.001,76.717,139.384,79.334,136.167,79.334z M136.167,68.667c-2.665,0-4.833,2.168-4.833,4.834c0,2.665,2.168,4.833,4.833,4.833
	s4.834-2.168,4.834-4.833C141.001,70.835,138.832,68.667,136.167,68.667z"/>
<path fill="#F2F2F2" d="M0.182,154.466l-0.365-0.932c1.453-0.57,145.746-57.359,181.907-81.139
	c6.649-4.374,20.796-3.838,38.773,12.064c17.197,15.213,29.812,37.24,29.938,37.461l-0.869,0.494
	c-0.125-0.22-12.661-22.106-29.73-37.205c-17.554-15.528-31.204-16.157-37.562-11.978C146.025,97.067,1.637,153.895,0.182,154.466z"
	/>
<path fill="#F2F2F2" d="M249.843,142.642c-26.523-8.785-52.662-36.114-66.704-50.796c-14.66-15.328-13.524-26.598-13.47-27.071
	c-0.003-9.502,22.559-49.963,32.185-57.666c4.043-3.235,11.188-2.703,18.759-2.14c4.874,0.363,9.919,0.739,14.571,0.19
	c11.312-1.331,14.38-5.409,14.409-5.45l0.815,0.579c-0.128,0.182-3.282,4.472-15.107,5.864c-4.752,0.559-9.841,0.181-14.763-0.187
	c-7.366-0.547-14.322-1.066-18.06,1.924c-9.514,7.612-31.812,47.526-31.812,56.943c-0.016,0.169-1.104,11.37,13.195,26.321
	c13.982,14.619,40.009,41.831,66.296,50.538L249.843,142.642z"/>
</svg>
