<?xml version="1.0" encoding="utf-8"?>
<!-- Generator: Adobe Illustrator 15.1.0, SVG Export Plug-In  -->
<!DOCTYPE svg PUBLIC "-//W3C//DTD SVG 1.1//EN" "http://www.w3.org/Graphics/SVG/1.1/DTD/svg11.dtd" [
	<!ENTITY ns_flows "http://ns.adobe.com/Flows/1.0/">
]>
<svg version="1.1"
	 xmlns="http://www.w3.org/2000/svg" xmlns:xlink="http://www.w3.org/1999/xlink" xmlns:a="http://ns.adobe.com/AdobeSVGViewerExtensions/3.0/"
	 x="0px" y="0px" width="250px" height="154px" viewBox="0 0 250 154" overflow="visible" enable-background="new 0 0 250 154"
	 xml:space="preserve">
<defs>
</defs>
<path fill="#EFEFEF" d="M183.411,121.92c-25.029,0-45.392-20.363-45.392-45.393s20.362-45.392,45.392-45.392
	s45.393,20.363,45.393,45.392S208.44,121.92,183.411,121.92z M183.411,32.135c-24.478,0-44.392,19.914-44.392,44.392
	c0,24.479,19.914,44.393,44.392,44.393c24.479,0,44.393-19.914,44.393-44.393C227.804,52.049,207.89,32.135,183.411,32.135z"/>
<path fill="#EFEFEF" d="M67.333,154L67.328,0l67.125,38.251L201.568,77l-67.117,38.75L67.333,154z M68.328,1.74l0.005,150.52
	l65.616-37.374L199.568,77l-65.617-37.884L68.328,1.74z"/>
<rect y="76.333" opacity="0" fill="#EFEFEF" width="250" height="1"/>
</svg>
