<?xml version="1.0" encoding="utf-8"?>
<!-- Generator: Adobe Illustrator 15.1.0, SVG Export Plug-In . SVG Version: 6.00 Build 0)  -->
<!DOCTYPE svg PUBLIC "-//W3C//DTD SVG 1.1//EN" "http://www.w3.org/Graphics/SVG/1.1/DTD/svg11.dtd">
<svg version="1.1" id="Layer_1" xmlns="http://www.w3.org/2000/svg" xmlns:xlink="http://www.w3.org/1999/xlink" x="0px" y="0px"
	 width="250px" height="154px" viewBox="0 0 250 154" enable-background="new 0 0 250 154" xml:space="preserve">
<rect x="124" fill="#F2F2F2" width="1" height="154"/>
<rect x="33" fill="#F2F2F2" width="1" height="154"/>
<rect x="214" fill="#F2F2F2" width="1" height="154"/>
<path fill="#F2F2F2" d="M124.108,154c-33.19,0-64.929-10.206-91.787-29.516l0.584-0.812C59.592,142.859,91.129,153,124.108,153
	c33.74,0,64.076-9.621,90.164-28.596l0.588,0.809C188.598,144.314,158.062,154,124.108,154z"/>
<polygon fill="#F2F2F2" points="123.881,0 32.985,124.514 33.792,125.104 124.904,0.295 124.5,0 "/>
<polygon fill="#F2F2F2" points="125.116,0 124.5,0 124.095,0.292 214.16,125.102 214.971,124.516 "/>
<polygon fill="#F2F2F2" points="34.118,0 33.5,0 33.096,0.294 123.846,125.044 124.654,124.456 "/>
<polygon fill="#F2F2F2" points="213.884,0 124.447,124.079 125.258,124.663 214.905,0.292 214.5,0 "/>
<rect y="124" fill="#F2F2F2" width="250" height="1"/>
</svg>
