<?xml version="1.0" encoding="utf-8"?>
<!-- Generator: Adobe Illustrator 25.2.0, SVG Export Plug-In . SVG Version: 6.00 Build 0)  -->
<svg version="1.1" id="Layer_1" xmlns="http://www.w3.org/2000/svg" xmlns:xlink="http://www.w3.org/1999/xlink" x="0px" y="0px"
	 width="250px" height="154px" viewBox="0 0 250 154" style="enable-background:new 0 0 250 154;" xml:space="preserve">
<style type="text/css">
	.st0{fill:#EEEEEE;fill-opacity:0;}
	.st1{fill:#EEEEEE;}
	.st2{fill:none;}
</style>
<rect y="79" class="st0" width="250" height="3"/>
<path class="st1" d="M157.5,91.5c-22.6,0-41-18.4-41-41s18.4-41,41-41s41,18.4,41,41S180.1,91.5,157.5,91.5z M157.5,10.5
	c-22.1,0-40,17.9-40,40s17.9,40,40,40s40-17.9,40-40S179.6,10.5,157.5,10.5z"/>
<path class="st1" d="M146.5,114C116.5,114,92,89.6,92,59.5C92,29.5,116.5,5,146.5,5S201,29.5,201,59.5C201,89.6,176.6,114,146.5,114
	z M146.5,6C117,6,93,30,93,59.5s24,53.5,53.5,53.5C176,113,200,89,200,59.5S176,6,146.5,6z"/>
<rect x="0.7" y="0.3" class="st2" width="248.9" height="153.2"/>
</svg>
