<?xml version="1.0" encoding="utf-8"?>
<!-- Generator: Adobe Illustrator 15.1.0, SVG Export Plug-In  -->
<!DOCTYPE svg PUBLIC "-//W3C//DTD SVG 1.1//EN" "http://www.w3.org/Graphics/SVG/1.1/DTD/svg11.dtd" [
	<!ENTITY ns_flows "http://ns.adobe.com/Flows/1.0/">
]>
<svg version="1.1"
	 xmlns="http://www.w3.org/2000/svg" xmlns:xlink="http://www.w3.org/1999/xlink" xmlns:a="http://ns.adobe.com/AdobeSVGViewerExtensions/3.0/"
	 x="0px" y="0px" width="250px" height="154px" viewBox="0 0 250 154" overflow="visible" enable-background="new 0 0 250 154"
	 xml:space="preserve">
<defs>
</defs>
<path fill="#EEEEEE" d="M250,80.167l-40.75-54.333l-8.523,37.877l-64.883-22.072l-0.48,33.827L83.535,52.689L42.333,0l0.163,153.905
	L42.458,154H44.5l90.545-31.931l0.644,0.846l0.016-1.078l56.972-20.091l0.471,0.207l0.091-0.405L250,81.531V80.167z M43.336,2.971
	L82.48,52.955l-38.987,98.432L43.336,2.971z M43.865,153.163l39.322-99.279l51.222,67.349L43.865,153.163z M134.729,120.003
	L84.782,54.33l50.565,22.222L134.729,120.003z M209.75,28.167l38.879,51.84l-46.95-15.972L209.75,28.167z M135.719,120.771
	l0.623-43.783l54.996,24.17L135.719,120.771z M192.438,100.549l-56.081-24.646l0.468-32.874l63.682,21.664L192.438,100.549z
	 M193.497,100.396l7.961-35.38l47.015,15.994L193.497,100.396z"/>
<rect y="79" opacity="0" fill="#EEEEEE" width="250" height="3"/>
</svg>
