<?xml version="1.0" encoding="utf-8"?>
<!-- Generator: Adobe Illustrator 25.2.0, SVG Export Plug-In . SVG Version: 6.00 Build 0)  -->
<svg version="1.1" id="Layer_1" xmlns="http://www.w3.org/2000/svg" xmlns:xlink="http://www.w3.org/1999/xlink" x="0px" y="0px"
	 width="250px" height="154px" viewBox="0 0 250 154" style="enable-background:new 0 0 250 154;" xml:space="preserve">
<style type="text/css">
	.st0{fill:#EEEEEE;fill-opacity:0;}
	.st1{fill:#EEEEEE;}
	.st2{fill:none;stroke:#EEEEEE;stroke-miterlimit:10;}
	.st3{fill:none;}
</style>
<rect y="79" class="st0" width="250" height="3"/>
<path class="st1" d="M142.9,147.2c-15.5,0-28.1-12.6-28.1-28.1S127.4,91,142.9,91s28.1,12.6,28.1,28.1S158.4,147.2,142.9,147.2z
	 M142.9,91.7c-15.1,0-27.4,12.3-27.4,27.4s12.3,27.4,27.4,27.4s27.4-12.3,27.4-27.4S158,91.7,142.9,91.7z"/>
<path class="st1" d="M101.8,110.9c-15.5,0-28.1-12.6-28.1-28.1s12.6-28.1,28.1-28.1s28.1,12.6,28.1,28.1S117.3,110.9,101.8,110.9z
	 M101.8,55.4c-15.1,0-27.4,12.3-27.4,27.4s12.3,27.4,27.4,27.4s27.4-12.3,27.4-27.4S116.9,55.4,101.8,55.4z"/>
<path class="st1" d="M65.5,61.4c-15.5,0-28.1-12.6-28.1-28.1S50,5.2,65.5,5.2s28.1,12.6,28.1,28.1S81,61.4,65.5,61.4z M65.5,5.8
	c-15.1,0-27.4,12.3-27.4,27.4s12.3,27.4,27.4,27.4s27.4-12.3,27.4-27.4S80.6,5.8,65.5,5.8z"/>
<path class="st1" d="M29.5,91.8C14,91.8,1.3,79.2,1.3,63.7S14,35.6,29.5,35.6s28.1,12.6,28.1,28.1S45,91.8,29.5,91.8z M29.5,36.2
	C14.3,36.2,2,48.6,2,63.7s12.3,27.4,27.4,27.4s27.4-12.3,27.4-27.4S44.6,36.2,29.5,36.2z"/>
<path class="st2" d="M0.5,140.7c15.1,0,27.4-12.3,27.4-27.4S15.6,85.8,0.5,85.8"/>
<path class="st1" d="M183.2,138c-15.5,0-28.1-12.6-28.1-28.1s12.6-28.1,28.1-28.1s28.1,12.6,28.1,28.1S198.7,138,183.2,138z
	 M183.2,82.4c-15.1,0-27.4,12.3-27.4,27.4s12.3,27.4,27.4,27.4s27.4-12.3,27.4-27.4S198.3,82.4,183.2,82.4z"/>
<path class="st1" d="M142.1,88.1C126.6,88.1,114,75.5,114,60s12.6-28.1,28.1-28.1s28.1,12.6,28.1,28.1S157.6,88.1,142.1,88.1z
	 M142.1,32.6c-15.1,0-27.4,12.3-27.4,27.4s12.3,27.4,27.4,27.4s27.4-12.3,27.4-27.4S157.2,32.6,142.1,32.6z"/>
<path class="st1" d="M191.1,62.5c-15.5,0-28.1-12.6-28.1-28.1s12.6-28.1,28.1-28.1s28.1,12.6,28.1,28.1S206.6,62.5,191.1,62.5z
	 M191.1,7c-15.1,0-27.4,12.3-27.4,27.4s12.3,27.4,27.4,27.4s27.4-12.3,27.4-27.4S206.2,7,191.1,7z"/>
<path class="st1" d="M114.5,56.9c-15.5,0-28.1-12.6-28.1-28.1S99,0.7,114.5,0.7s28.1,12.6,28.1,28.1S130,56.9,114.5,56.9z
	 M114.5,1.3c-15.1,0-27.4,12.3-27.4,27.4s12.3,27.4,27.4,27.4s27.4-12.3,27.4-27.4S129.6,1.3,114.5,1.3z"/>
<rect x="0.7" y="0.3" class="st3" width="248.9" height="153.2"/>
</svg>
