<?xml version="1.0" encoding="utf-8"?>
<!-- Generator: Adobe Illustrator 25.2.0, SVG Export Plug-In . SVG Version: 6.00 Build 0)  -->
<svg version="1.1" id="Layer_1" xmlns="http://www.w3.org/2000/svg" xmlns:xlink="http://www.w3.org/1999/xlink" x="0px" y="0px"
	 width="250px" height="154px" viewBox="0 0 250 154" style="enable-background:new 0 0 250 154;" xml:space="preserve">
<style type="text/css">
	.st0{fill:none;}
	.st1{fill:#EEEEEE;}
</style>
<rect class="st0" width="250" height="154"/>
<path class="st1" d="M150.9,59.9H82.2c-1.9,0-3.5-1.6-3.5-3.5V16.7c0-1.9,1.6-3.5,3.5-3.5h68.7c1.9,0,3.5,1.6,3.5,3.5v39.7
	C154.4,58.3,152.8,59.9,150.9,59.9z M82.2,14.3c-1.4,0-2.5,1.1-2.5,2.5v39.7c0,1.4,1.1,2.5,2.5,2.5h68.7c1.4,0,2.5-1.1,2.5-2.5V16.7
	c0-1.4-1.1-2.5-2.5-2.5H82.2z"/>
<path class="st1" d="M233.7,59.9H165c-1.9,0-3.5-1.6-3.5-3.5V16.7c0-1.9,1.6-3.5,3.5-3.5h68.7c1.9,0,3.5,1.6,3.5,3.5v39.7
	C237.1,58.3,235.6,59.9,233.7,59.9z M165,14.3c-1.4,0-2.5,1.1-2.5,2.5v39.7c0,1.4,1.1,2.5,2.5,2.5h68.7c1.4,0,2.5-1.1,2.5-2.5V16.7
	c0-1.4-1.1-2.5-2.5-2.5H165z"/>
<path class="st1" d="M150.9,143H82.2c-1.9,0-3.5-1.6-3.5-3.5V99.8c0-1.9,1.6-3.5,3.5-3.5h68.7c1.9,0,3.5,1.5,3.5,3.5v39.7
	C154.4,141.4,152.8,143,150.9,143z M82.2,97.3c-1.4,0-2.5,1.1-2.5,2.5v39.7c0,1.4,1.1,2.5,2.5,2.5h68.7c1.4,0,2.5-1.1,2.5-2.5V99.8
	c0-1.4-1.1-2.5-2.5-2.5H82.2z"/>
<path class="st1" d="M233.7,143H165c-1.9,0-3.5-1.6-3.5-3.5V99.8c0-1.9,1.6-3.5,3.5-3.5h68.7c1.9,0,3.5,1.5,3.5,3.5v39.7
	C237.1,141.4,235.6,143,233.7,143z M165,97.3c-1.4,0-2.5,1.1-2.5,2.5v39.7c0,1.4,1.1,2.5,2.5,2.5h68.7c1.4,0,2.5-1.1,2.5-2.5V99.8
	c0-1.4-1.1-2.5-2.5-2.5H165z"/>
</svg>
