<svg id="Layer_1" data-name="Layer 1" xmlns="http://www.w3.org/2000/svg" viewBox="0 0 500 308"><defs><style>.cls-1{fill:#eee;}</style></defs><title>Artboard 1</title><path class="cls-1" d="M286.5,59C201.69,59,128.25,43.08,81.58,29.73,31,15.26.09.6-.22.45l.43-.9c.31.15,31.17,14.78,81.67,29.23C128.48,42.11,201.81,58,286.5,58,354.61,58,498.37.12,499.81-.46l.38.93C498.74,1,354.81,59,286.5,59Z"/><path class="cls-1" d="M499.33,308c-1.48-.55-149-55-243.85-59S1.28,307.33-.32,308L-.68,307c1.6-.63,161.22-63,256.2-59s242.67,58.48,244.15,59Z"/><polygon class="cls-1" points="-0.2 265.9 -0.8 265.1 154.62 149.53 -0.77 51.92 -0.23 51.08 156.38 149.47 -0.2 265.9"/><polygon class="cls-1" points="499.2 252.9 358.62 149.47 359.23 149.08 499.23 58.08 499.77 58.92 360.38 149.53 499.8 252.1 499.2 252.9"/></svg>