<?xml version="1.0" encoding="utf-8"?>
<!-- Generator: Adobe Illustrator 15.1.0, SVG Export Plug-In  -->
<!DOCTYPE svg PUBLIC "-//W3C//DTD SVG 1.1//EN" "http://www.w3.org/Graphics/SVG/1.1/DTD/svg11.dtd" [
	<!ENTITY ns_flows "http://ns.adobe.com/Flows/1.0/">
]>
<svg version="1.1"
	 xmlns="http://www.w3.org/2000/svg" xmlns:xlink="http://www.w3.org/1999/xlink" xmlns:a="http://ns.adobe.com/AdobeSVGViewerExtensions/3.0/"
	 x="0px" y="0px" width="250px" height="154px" viewBox="0 -0.5 250 154"
	 overflow="visible" enable-background="new 0 -0.5 250 154" xml:space="preserve">
<defs>
</defs>
<path fill="#EEEEEE" d="M125,117c-32.257,0-58.5-26.243-58.5-58.5S92.743,0,125,0s58.5,26.243,58.5,58.5S157.257,117,125,117z
	 M125,1C93.294,1,67.5,26.794,67.5,58.5c0,31.706,25.794,57.5,57.5,57.5c31.706,0,57.5-25.794,57.5-57.5
	C182.5,26.794,156.706,1,125,1z"/>
<rect x="124" y="0.5" fill="#EEEEEE" width="1" height="152"/>
<path fill="#EEEEEE" d="M221,153.5h-1c0-52.383-42.617-95-95-95c-52.383,0-95,42.617-95,95h-1c0-52.935,43.065-96,96-96
	S221,100.565,221,153.5z"/>
<rect y="66.5" opacity="0" fill="#EEEEEE" width="250" height="3"/>
</svg>
