<?xml version="1.0" encoding="utf-8"?>
<!-- Generator: Adobe Illustrator 21.0.2, SVG Export Plug-In . SVG Version: 6.00 Build 0)  -->
<svg version="1.1" id="Layer_1" xmlns="http://www.w3.org/2000/svg" xmlns:xlink="http://www.w3.org/1999/xlink" x="0px" y="0px"
	 viewBox="0 0 500 308" style="enable-background:new 0 0 500 308;" xml:space="preserve">
<style type="text/css">
	.st0{fill:none;}
	.st1{fill:none;stroke:#EEEEEE;stroke-miterlimit:10;}
	.st2{fill:#EEEEEE;}
</style>
<line class="st0" x1="0" y1="0" x2="0" y2="308"/>
<path class="st1" d="M290.5,154"/>
<path class="st2" d="M1.3,307.5h-1v-83.1c0-56.8,26.6-113.7,72.9-155.9C121,25,183.8,1,250,1s129,24,176.8,67.5
	c46.4,42.2,72.9,99.1,72.9,155.9v82.1h-1v-82.1c0-56.6-26.5-113.1-72.6-155.2C378.5,25.9,316,2,250,2S121.5,25.9,73.9,69.2
	C27.8,111.3,1.3,167.8,1.3,224.4V307.5z"/>
</svg>
