<?xml version="1.0" encoding="utf-8"?>
<!-- Generator: Adobe Illustrator 23.1.1, SVG Export Plug-In . SVG Version: 6.00 Build 0)  -->
<svg version="1.1" id="Layer_1" xmlns="http://www.w3.org/2000/svg" xmlns:xlink="http://www.w3.org/1999/xlink" x="0px" y="0px"
	 width="250px" height="155px" viewBox="0 0 250 155" style="enable-background:new 0 0 250 155;" xml:space="preserve">
<style type="text/css">
	.st0{fill:#EEEEEE;fill-opacity:0;}
	.st1{fill:none;stroke:#EEEEEE;stroke-miterlimit:10;}
</style>
<rect x="96" y="1" class="st0" width="1" height="154"/>
<polyline class="st1" points="0,36.2 36.3,36.2 36.3,0 "/>
<polyline class="st1" points="0,45 37.8,45 38.6,88.9 0,89.2 "/>
<polyline class="st1" points="0,103.4 38.6,103.4 38.6,155 "/>
<polyline class="st1" points="50.5,155 50.5,123.8 115.3,123.8 115.3,155 "/>
<polygon class="st1" points="61.9,65.7 62.8,103.4 107.1,103.4 107.1,64.8 "/>
<polygon class="st1" points="123.5,54.7 125,121.9 160.9,121.9 160.9,54.7 "/>
<polyline class="st1" points="129.6,155 129.6,144.5 170.8,145.5 170.8,155 "/>
<polyline class="st1" points="192.6,155 191.1,63.1 250,60.6 "/>
<polyline class="st1" points="250,3.6 238.9,3.6 238.9,38.6 250,38.6 "/>
<polyline class="st1" points="216,0 216,33.9 127.4,35.7 126.6,0 "/>
<polyline class="st1" points="47.3,0 48,32.2 117.8,30.2 117.8,0 "/>
</svg>
