<?xml version="1.0" encoding="utf-8"?>
<!-- Generator: Adobe Illustrator 15.1.0, SVG Export Plug-In  -->
<!DOCTYPE svg PUBLIC "-//W3C//DTD SVG 1.1//EN" "http://www.w3.org/Graphics/SVG/1.1/DTD/svg11.dtd" [
	<!ENTITY ns_flows "http://ns.adobe.com/Flows/1.0/">
]>
<svg version="1.1"
	 xmlns="http://www.w3.org/2000/svg" xmlns:xlink="http://www.w3.org/1999/xlink" xmlns:a="http://ns.adobe.com/AdobeSVGViewerExtensions/3.0/"
	 x="0px" y="0px" width="250px" height="153px" viewBox="0 0 250 153" overflow="visible" enable-background="new 0 0 250 153"
	 xml:space="preserve">
<defs>
</defs>
<path fill="#EEEEEE" d="M250,51.188V50H124.833l-0.333-0.257L124.167,50H0v1h0.191l53.939,52H0v1h55.168l0.296,0.284L55.832,104
	h137.299l0.188,0.146l0.338,0.262l0.431-0.407H250v-1h-54.853L250,51.188z M55.536,102.966l-1.317-1.27l0.05-0.053L1.634,51h121.238
	L55.536,102.966z M57.128,103L124.5,51.007L191.836,103H57.128z M193.691,103h-0.219l-67.345-52h122.614L193.691,103z"/>
<rect x="55" fill="#EEEEEE" width="1" height="153"/>
<rect x="124" fill="#EEEEEE" width="1" height="153"/>
<rect x="193" fill="#EEEEEE" width="1" height="153"/>
</svg>
