<?xml version="1.0" encoding="utf-8"?>
<!-- Generator: Adobe Illustrator 23.1.1, SVG Export Plug-In . SVG Version: 6.00 Build 0)  -->
<svg version="1.1" id="Layer_1" xmlns="http://www.w3.org/2000/svg" xmlns:xlink="http://www.w3.org/1999/xlink" x="0px" y="0px"
	 width="500px" height="308px" viewBox="0 0 500 308" style="enable-background:new 0 0 500 308;" xml:space="preserve">
<style type="text/css">
	.st0{fill:none;stroke:#EEEEEE;stroke-miterlimit:10;}
	.st1{fill:none;}
</style>
<title>Artboard 1</title>
<path class="st0" d="M0,308"/>
<ellipse transform="matrix(0.9977 -6.844794e-02 6.844794e-02 0.9977 -8.6335 8.2232)" class="st0" cx="115.7" cy="130.1" rx="8.8" ry="3"/>
<ellipse transform="matrix(0.9977 -6.844794e-02 6.844794e-02 0.9977 -11.5288 10.1575)" class="st0" cx="142.5" cy="173.3" rx="10.5" ry="3.6"/>
<ellipse transform="matrix(0.9977 -6.844794e-02 6.844794e-02 0.9977 -6.7474 1.6328)" class="st0" cx="20.5" cy="99.3" rx="10.5" ry="3.6"/>
<ellipse transform="matrix(0.9977 -6.844794e-02 6.844794e-02 0.9977 -13.0103 5.197)" class="st0" cx="69.3" cy="192.5" rx="10.5" ry="3.6"/>
<ellipse transform="matrix(0.9977 -6.844794e-02 6.844794e-02 0.9977 -15.1789 4.8042)" class="st0" cx="62.5" cy="223.9" rx="11.8" ry="4"/>
<ellipse transform="matrix(0.9977 -6.844794e-02 6.844794e-02 0.9977 -17.3627 15.9031)" class="st0" cx="223.4" cy="261.3" rx="13.6" ry="4.6"/>
<ellipse transform="matrix(0.9977 -6.844794e-02 6.844794e-02 0.9977 -8.5878 23.3641)" class="st0" cx="336.6" cy="137" rx="10.7" ry="3.6"/>
<ellipse class="st0" cx="466" cy="230.8" rx="12.8" ry="4.4"/>
<ellipse class="st0" cx="480.1" cy="154.1" rx="8.5" ry="2.2"/>
<ellipse class="st0" cx="11.9" cy="18.5" rx="8.5" ry="2.2"/>
<ellipse transform="matrix(0.9977 -6.844794e-02 6.844794e-02 0.9977 -14.5794 23.7562)" class="st0" cx="339.4" cy="224.6" rx="13.4" ry="4.6"/>
<ellipse transform="matrix(0.9977 -6.844794e-02 6.844794e-02 0.9977 -4.2536 27.1179)" class="st0" cx="393.6" cy="75.6" rx="9" ry="2.6"/>
<ellipse transform="matrix(0.9977 -6.844794e-02 6.844794e-02 0.9977 -2.6104 18.7089)" class="st0" cx="271.7" cy="47.4" rx="7.9" ry="3"/>
<rect class="st1" width="500" height="308"/>
</svg>
