<?xml version="1.0" encoding="utf-8"?>
<!-- Generator: Adobe Illustrator 15.1.0, SVG Export Plug-In  -->
<!DOCTYPE svg PUBLIC "-//W3C//DTD SVG 1.1//EN" "http://www.w3.org/Graphics/SVG/1.1/DTD/svg11.dtd" [
	<!ENTITY ns_flows "http://ns.adobe.com/Flows/1.0/">
]>
<svg version="1.1"
	 xmlns="http://www.w3.org/2000/svg" xmlns:xlink="http://www.w3.org/1999/xlink" xmlns:a="http://ns.adobe.com/AdobeSVGViewerExtensions/3.0/"
	 x="0px" y="0px" width="250px" height="154px" viewBox="0 0 250 154" overflow="visible" enable-background="new 0 0 250 154"
	 xml:space="preserve">
<defs>
</defs>
<path fill="#F2F2F2" d="M0,154v-0.844c84.824,0,153.833-68.516,153.833-153.156h1c0,41.337-16.105,80.16-45.35,109.317
	C80.259,138.454,41.377,154,0,154z"/>
<polygon fill="#F2F2F2" points="154.5,154 154.717,153.783 0.708,0 0,0 0,0.707 153.519,154 "/>
<rect x="154" fill="#F2F2F2" width="1" height="154"/>
<rect x="109" fill="#F2F2F2" width="1" height="154"/>
<path fill="#F2F2F2" d="M0,109.499v-1c59.827,0,108.499-48.672,108.499-108.499h1C109.499,60.378,60.378,109.499,0,109.499z"/>
<rect y="108" fill="#F2F2F2" width="250" height="1"/>
</svg>
